PathFileType	3	(X/Y/Z)	squats_1__fused_aligned.trc
DataRate	CameraRate	NumFrames	NumMarkers	Units	OrigDataRate	OrigDataStartFrame	OrigNumFrames
100.0	100.0	7	19	mm	100.0	1577	1650
Frame#	Time	pelvis			neck			head			hip_left			hip_right			knee_left			knee_right			ankle_left			ankle_right			heel_left			heel_right			toe_left			toe_right			shoulder_left			shoulder_right			elbow_left			elbow_right			wrist_left			wrist_right			
		X1	Y1	Z1	X2	Y2	Z2	X3	Y3	Z3	X4	Y4	Z4	X5	Y5	Z5	X6	Y6	Z6	X7	Y7	Z7	X8	Y8	Z8	X9	Y9	Z9	X10	Y10	Z10	X11	Y11	Z11	X12	Y12	Z12	X13	Y13	Z13	X14	Y14	Z14	X15	Y15	Z15	X16	Y16	Z16	X17	Y17	Z17	X18	Y18	Z18	X19	Y19	Z19	
1577	15.76000	92.670774	411.645468	70.076307	101.698741	838.020423	-238.245592	108.572432	930.424227	-383.594174	11.649592	414.732097	71.879312	173.692103	408.558836	68.273243	-107.180037	362.045466	-314.411145	291.267938	233.906566	-245.272604	-40.883433	159.493443	6.953024	256.285135	-32.173451	14.528259	-31.431726	137.025018	60.271266	250.052803	-59.244212	66.308904	-64.483080	63.185845	-136.576822	268.138019	-136.491227	-135.026198	-78.252532	818.991677	-186.203334	281.200652	782.851772	-205.843999	-227.852105	585.435205	-149.447313	368.468161	514.532321	-212.831544	-239.618976	439.595322	-343.714331	328.658083	356.016413	-397.867110
1578	15.77000	92.140573	407.523239	70.281769	101.105999	833.730342	-237.272479	108.074336	926.111525	-382.537200	11.006382	410.670787	72.097282	173.274890	404.375688	68.466205	-108.182683	360.708946	-314.160816	291.954924	232.245091	-245.407557	-41.058267	159.299166	7.716379	256.801585	-33.545109	14.620799	-31.583847	136.896043	61.050854	250.582170	-60.632833	66.385435	-64.167184	63.185156	-135.863649	268.753159	-137.563099	-134.993292	-78.925619	814.770181	-185.124306	280.748522	778.581333	-205.177728	-229.224345	581.393162	-149.180921	368.222142	510.289527	-212.863499	-240.487115	436.136735	-343.887523	327.602900	351.755863	-397.738214
1579	15.78000	91.610372	403.401009	70.487232	100.513257	829.440260	-236.299366	107.576241	921.798823	-381.480225	10.363172	406.609477	72.315253	172.857678	400.192540	68.659168	-109.185329	359.372426	-313.910487	292.641911	230.583616	-245.542511	-41.233100	159.104889	8.479733	257.318035	-34.916767	14.713339	-31.735968	136.767068	61.830442	251.111538	-62.021454	66.461966	-63.851288	63.184468	-135.150476	269.368300	-138.634972	-134.960385	-79.598707	810.548686	-184.045279	280.296392	774.310893	-204.511456	-230.596585	577.351119	-148.914529	367.976123	506.046733	-212.895454	-241.355253	432.678149	-344.060716	326.547717	347.495313	-397.609319
1580	15.79000	91.080171	399.278780	70.692695	99.920514	825.150179	-235.326253	107.078145	917.486121	-380.423251	9.719962	402.548166	72.533224	172.440465	396.009392	68.852130	-110.187974	358.035906	-313.660159	293.328898	228.922140	-245.677465	-41.407933	158.910612	9.243088	257.834485	-36.288426	14.805880	-31.888089	136.638093	62.610030	251.640906	-63.410075	66.538498	-63.535393	63.183779	-134.437304	269.983441	-139.706844	-134.927479	-80.271794	806.327190	-182.966252	279.844262	770.040454	-203.845185	-231.968825	573.309076	-148.648137	367.730103	501.803939	-212.927409	-242.223391	429.219562	-344.233908	325.492535	343.234763	-397.480424
1581	15.80000	90.549971	395.156551	70.898158	99.327772	820.860097	-234.353139	106.580050	913.173419	-379.366276	9.076752	398.486856	72.751194	172.023253	391.826244	69.045093	-111.190620	356.699386	-313.409830	294.015884	227.260665	-245.812418	-41.582767	158.716335	10.006443	258.350936	-37.660084	14.898420	-32.040210	136.509118	63.389618	252.170274	-64.798697	66.615029	-63.219497	63.183090	-133.724131	270.598582	-140.778716	-134.894572	-80.944881	802.105695	-181.887224	279.392132	765.770014	-203.178914	-233.341065	569.267033	-148.381745	367.484084	497.561146	-212.959364	-243.091530	425.760976	-344.407100	324.437352	338.974212	-397.351528
1582	15.81000	90.019770	391.034321	71.103621	98.735030	816.570015	-233.380026	106.081955	908.860717	-378.309302	8.433542	394.425545	72.969165	171.606040	387.643096	69.238055	-112.193266	355.362865	-313.159501	294.702871	225.599189	-245.947372	-41.757600	158.522058	10.769797	258.867386	-39.031742	14.990960	-32.192330	136.380143	64.169206	252.699642	-66.187318	66.691560	-62.903601	63.182402	-133.010958	271.213722	-141.850589	-134.861665	-81.617969	797.884199	-180.808197	278.940001	761.499575	-202.512642	-234.713305	565.224989	-148.115353	367.238065	493.318352	-212.991319	-243.959668	422.302389	-344.580293	323.382169	334.713662	-397.222633
1583	15.82000	89.489569	386.912092	71.309083	98.142288	812.279934	-232.406913	105.583859	904.548015	-377.252328	7.790332	390.364235	73.187135	171.188828	383.459948	69.431017	-113.195912	354.026345	-312.909173	295.389857	223.937714	-246.082326	-41.932434	158.327781	11.533152	259.383836	-40.403400	15.083501	-32.344451	136.251168	64.948794	253.229010	-67.575939	66.768091	-62.587705	63.181713	-132.297785	271.828863	-142.922461	-134.828759	-82.291056	793.662704	-179.729170	278.487871	757.229136	-201.846371	-236.085545	561.182946	-147.848961	366.992046	489.075558	-213.023274	-244.827806	418.843802	-344.753485	322.326986	330.453112	-397.093738
